<?xml version="1.0" encoding="utf-8"?>
<!-- Generator: Adobe Illustrator 26.5.0, SVG Export Plug-In . SVG Version: 6.00 Build 0)  -->
<svg version="1.0" id="katman_1" xmlns="http://www.w3.org/2000/svg" xmlns:xlink="http://www.w3.org/1999/xlink" x="0px" y="0px"
	 viewBox="0 0 1190.55 841.89" style="enable-background:new 0 0 1190.55 841.89;" xml:space="preserve">
<style type="text/css">
	.st0{fill:#4C60A9;stroke:#4C60A9;stroke-width:0.0938;}
	.st1{fill:#6CC0A7;stroke:#6CC0A7;stroke-width:0.0938;}
	.st2{fill:#444444;stroke:#444444;stroke-width:0.0938;}
	.st3{fill:#61BCA1;stroke:#61BCA1;stroke-width:0.0938;}
	.st4{fill:#50B798;stroke:#50B798;stroke-width:0.0938;}
	.st5{fill:#41B492;stroke:#41B492;stroke-width:0.0938;}
</style>
<path class="st0" d="M172.5,330.05c21.48-20.97,50.64-31.72,79.8-34.27c45.02-1.02,89.52,23.53,112.03,62.41
	c-29.67,27.11-57.8,54.74-85.94,82.36c-25.58-8.18-50.64-18.42-75.71-27.62c-21.48,14.32-43.48,28.13-64.97,41.95
	C123.9,410.87,139.25,360.74,172.5,330.05z"/>
<path class="st1" d="M364.33,358.18c3.58,7.67,6.65,15.35,10.23,23.02c-33.76,23.53-56.78,60.36-92.59,81.85
	c-25.58-3.07-47.57-20.97-73.66-24.04c-22,10.74-40.41,27.11-63.43,35.3c-2.56-6.14-5.12-12.79-7.16-19.44
	c21.48-13.81,43.48-27.62,64.97-41.95c25.07,9.21,50.13,19.44,75.71,27.62C306.52,412.92,334.66,385.29,364.33,358.18z"/>
<path class="st2" d="M473.8,369.43c24.55-19.44,61.9-16.37,85.94,3.58c-4.09,5.12-8.7,10.23-12.79,15.35
	c-15.35-9.21-35.3-17.39-52.69-7.67c-28.13,14.32-30.18,59.85-3.58,76.73c15.86,10.74,36.32,6.65,52.18-1.53c0-8.18,0-15.86,0-24.04
	c-10.23,0-20.46,0-31.2,0c0-4.6,0-14.32,0-18.93c17.39,0,34.78,0,52.18,0c0,17.39,0,35.3,0,52.69
	c-25.07,18.93-61.39,26.09-87.99,7.16C441.06,450.26,440.55,393.99,473.8,369.43z"/>
<path class="st3" d="M281.97,463.05c35.81-21.48,58.83-58.32,92.59-81.85c2.05,8.7,3.58,17.39,5.63,26.6
	c-30.18,20.97-56.27,47.57-82.36,73.15c-4.6,3.58-9.21,8.7-15.35,10.23c-26.09-1.53-48.08-19.95-74.17-22
	c-17.9,6.65-32.74,19.44-48.6,29.16c-5.12-7.67-10.23-15.86-14.83-24.04c23.02-8.18,41.43-24.55,63.43-35.3
	C234.39,442.07,256.39,459.98,281.97,463.05z"/>
<path class="st2" d="M588.38,388.36c5.12,0,15.86,0,20.97,0c0,6.65,0,12.79,0,19.44c7.67-11.25,18.42-21.48,33.25-21.48
	c0,5.12,0.51,15.86,0.51,20.97c-10.23,3.58-23.02,5.63-28.65,16.88c-8.18,17.9-4.09,38.37-5.12,57.29
	c-6.65,0.51-13.81,0.51-20.97,1.02C588.38,451.28,588.38,419.57,588.38,388.36z"/>
<path class="st2" d="M684.55,391.43c34.27-18.42,79.8,15.86,69.06,54.22c-6.14,35.81-55.25,50.64-81.34,25.58
	C646.7,450.26,653.35,404.22,684.55,391.43 M694.78,407.29c-20.97,7.67-22.51,39.9-5.63,52.69c15.86,12.28,43.48,1.53,43.48-18.93
	C738.26,419.05,715.76,398.59,694.78,407.29z"/>
<path class="st2" d="M769.98,388.36c5.12,0,15.86,0,20.97,0c6.65,20.97,12.28,41.95,18.93,62.92c7.16-20.97,13.81-41.95,20.46-62.92
	c4.6,0,13.3-0.51,17.9-0.51c7.16,20.97,12.79,42.97,22,63.43c5.63-21.48,11.25-42.97,19.44-63.43c4.6,0,13.81,0.51,18.42,1.02
	c-7.67,31.72-19.44,62.41-29.67,94.12c-4.6,0-13.3-0.51-17.9-0.51c-7.16-19.44-12.79-39.39-19.95-58.83
	c-11.77,17.39-13.81,39.9-23.02,59.34c-4.6,0-13.3-0.51-17.9-0.51C789.93,451.28,779.19,420.08,769.98,388.36z"/>
<path class="st2" d="M919.35,388.36c5.63,0,15.86,0,20.97,0c7.16,20.97,12.79,41.95,18.93,63.43c9.21-20.46,11.77-43.99,23.02-63.94
	c3.58,0,10.74,0,14.32,0c10.74,19.95,13.81,43.48,23.02,63.94c5.63-21.48,11.77-42.46,18.93-63.43c5.12,0,15.35,0,20.46,0
	c-10.23,31.72-19.44,63.94-31.2,94.64c-4.6,0-13.81-0.51-17.9-0.51c-6.65-21.48-13.81-42.46-20.46-63.43
	c-8.7,20.97-11.77,44.5-23.53,63.94c-3.58,0-10.74,0-14.32,0C937.25,452.82,930.6,419.57,919.35,388.36z"/>
<path class="st4" d="M297.83,480.95c26.09-25.58,52.18-52.18,82.36-73.15c0.51,10.23,0,20.46-0.51,30.69
	c-27.11,18.93-51.67,40.92-74.17,65.48c-7.16,6.65-13.81,14.83-23.02,17.9c-25.07-2.05-46.04-18.42-70.59-22.51
	c-13.3,2.56-24.55,9.72-36.32,15.86c-5.12-5.63-10.74-11.25-15.86-16.88c15.86-9.72,30.69-22.51,48.6-29.16
	c26.09,2.05,48.08,20.46,74.17,22C288.62,489.65,293.22,484.53,297.83,480.95z"/>
<path class="st5" d="M305.5,503.97c22.51-24.55,47.06-46.55,74.17-65.48c-7.67,59.34-62.41,106.91-122.26,106.91
	c-29.67,0-58.83-11.77-81.85-30.18c11.77-6.14,23.02-13.3,36.32-15.86c24.55,4.09,45.53,20.46,70.59,22.51
	C291.69,518.81,298.34,510.62,305.5,503.97z"/>
</svg>
